<svg xmlns="http://www.w3.org/2000/svg" viewBox="0 0 128 128">
  <defs>
    <linearGradient id="g" x1="0" x2="1" y1="0" y2="1">
      <stop offset="0" stop-color="#0ea5e9"/>
      <stop offset="1" stop-color="#14b8a6"/>
    </linearGradient>
  </defs>
  <rect rx="20" ry="20" x="4" y="4" width="120" height="120" fill="#ffffff" stroke="#e2e8f0"/>
  <!-- calendar -->
  <rect x="20" y="36" width="88" height="72" rx="10" fill="url(#g)" opacity=".12" />
  <rect x="20" y="36" width="88" height="14" rx="4" fill="url(#g)" />
  <!-- ticks -->
  <g fill="#0f172a" opacity=".5">
    <rect x="32" y="60" width="12" height="8" rx="2"/>
    <rect x="52" y="60" width="12" height="8" rx="2"/>
    <rect x="72" y="60" width="12" height="8" rx="2"/>
    <rect x="92" y="60" width="12" height="8" rx="2"/>
    <rect x="32" y="76" width="12" height="8" rx="2"/>
    <rect x="52" y="76" width="12" height="8" rx="2"/>
    <rect x="72" y="76" width="12" height="8" rx="2"/>
    <rect x="92" y="76" width="12" height="8" rx="2"/>
  </g>
  <!-- PT -->
  <g fill="#0f172a" font-family="ui-sans-serif,system-ui,-apple-system,Segoe UI,Roboto" font-weight="700">
    <text x="64" y="28" font-size="16" text-anchor="middle">PT Scheduler</text>
    <text x="64" y="120" font-size="10" text-anchor="middle" opacity=".6">مواعيد العلاج الطبيعي</text>
  </g>
</svg>